<svg width="750" height="600" viewBox="0 0 750 600" fill="none" xmlns="http://www.w3.org/2000/svg">
<path d="M645.8 354.48V366.8C645.766 368.83 645.106 370.799 643.91 372.44C642.383 374.497 640.433 376.202 638.19 377.44L487.19 464.66L432.7 496.11L432.43 496.26L415.88 505.81L403.88 512.74L397.29 516.57L384.71 523.85L383.35 524.64L383.08 524.76L381.15 525.89L375.24 529.3L365.65 534.84L336.17 551.84C331.1 554.76 324.43 556.23 317.8 556.23C311.17 556.23 304.5 554.76 299.42 551.84L216.78 504.21L134.18 456.54C131.798 455.262 129.757 453.431 128.23 451.2C127.034 449.415 126.461 447.284 126.6 445.14V433.64L148 430.38L155.76 429.17L177.14 426L192.25 423.68L339.34 401.2L342.45 400.71L345.52 400.26L348.02 399.88L349.65 399.61L350.3 399.54L351.3 399.38L369.3 396.66C369.45 396.66 370.3 396.5 370.3 396.5L505.46 375.89L645.8 354.48Z" fill="#4CC1EC"/>
<path d="M299.37 535.64V551.82L216.73 504.19L134.13 456.52C131.748 455.242 129.707 453.411 128.18 451.18C126.984 449.395 126.411 447.264 126.55 445.12V433.64C126.55 429.77 129.03 425.91 134.13 422.99L135.95 421.93L148 430.38L162.73 440.65L214.08 476.34L299.37 535.64Z" fill="#0098CA"/>
<path d="M645.8 354.48C645.8 358.31 643.27 362.14 638.19 365.09L436.19 481.72L421.76 490.06L413.76 494.68L402 501.46L396.2 504.8L386.8 510.25L385.02 511.25L383.69 512L373.05 518.14L372.37 518.52L371.19 519.2L370.43 519.66L364.07 523.33L336.07 539.47C325.92 545.31 309.48 545.31 299.32 539.47L134.13 444.21C129.28 441.4 126.74 437.77 126.55 434.09V433.64C126.55 429.77 129.03 425.91 134.13 422.99L135.95 421.93L431.23 251.42L436.23 248.58C446.39 242.71 462.83 242.71 472.99 248.58L638.23 343.87C643.27 346.79 645.8 350.62 645.8 354.48Z" fill="#2271FF"/>
<g style="mix-blend-mode:screen" opacity="0.1">
<path d="M587.42 328.54L272.79 510.2L222.72 481.31C202.02 469.4 181.35 457.47 165.84 448.51C162.84 446.79 160.06 445.17 157.49 443.7L472.12 262.06L492.74 273.94L587.42 328.54Z" fill="white"/>
</g>
<g style="mix-blend-mode:screen" opacity="0.1">
<path d="M381.56 454.06L490.46 391.19L531.58 415.17L422.68 478.04L381.56 454.06Z" fill="white"/>
</g>
<g style="mix-blend-mode:screen" opacity="0.1">
<path d="M145.75 423.26L436.18 255.59L454 266.08L163.58 433.76L145.75 423.26Z" fill="white"/>
</g>
<path d="M448 15L443.07 21.14V210.65C443.07 222.81 433.22 238.39 421.07 245.4L156.75 398L126.25 415.62L125.53 415.96L119.53 423.46L109.45 417.52C106.2 415.52 104.23 411.72 104.23 406.3V215.84C104.23 203.68 114.12 188.14 126.23 181.1L421 10.89C427.78 7 433.84 6.57 437.9 9L448 15Z" fill="#26ADDB"/>
<path d="M156.75 398L126.25 415.62L125.53 415.96L119.53 423.46L109.45 417.52C106.2 415.52 104.23 411.72 104.23 406.3V215.84L114.46 221.84L131.32 284.17L148.22 340.81C152.09 342 155.35 379 156.75 398Z" fill="#0098CA"/>
<path d="M453.24 26.24V216.68C453.24 228.84 443.39 244.37 431.24 251.42L136.44 421.59C136.259 421.706 136.068 421.806 135.87 421.89C130.15 425.07 125 425.76 121.17 424.24C120.591 424.022 120.033 423.754 119.5 423.44C116.32 421.44 114.43 417.65 114.43 412.3V221.87C114.43 209.7 124.28 194.13 136.43 187.12L431.23 16.92C437.78 13.13 443.66 12.6 447.71 14.83L448 15C451.27 16.92 453.24 20.78 453.24 26.24Z" fill="#4CC1EC"/>
<path d="M125.44 417.75C124.21 417.75 121.67 417.75 121.67 412.29V221.85C121.67 212.35 130.27 199.06 140.07 193.4L434.85 23.2C437.066 21.7899 439.599 20.9547 442.22 20.77C443.44 20.77 445.98 20.77 445.98 26.23V216.66C445.98 226.17 437.39 239.46 427.59 245.12L132.8 415.31C130.587 416.721 128.058 417.559 125.44 417.75V417.75Z" fill="#FFFEFF"/>
<path d="M422.88 77.37L144.77 237.94V221.58L422.88 61.01V77.37Z" fill="#A7D0F9"/>
<path d="M294.35 167.01L144.77 253.37V245.19L294.35 158.83V167.01Z" fill="#BBDAF9"/>
<path d="M294.35 186.53L144.77 272.89V264.71L294.35 178.35V186.53Z" fill="#BBDAF9"/>
<path d="M294.35 206.06L144.77 292.41V284.23L294.35 197.88V206.06Z" fill="#BBDAF9"/>
<path d="M294.35 225.58L144.77 311.94V303.75L294.35 217.4V225.58Z" fill="#BBDAF9"/>
<path d="M294.35 245.1L144.77 331.45V323.27L294.35 236.92V245.1Z" fill="#BBDAF9"/>
<path d="M294.35 264.62L144.77 350.98V342.8L294.35 256.44V264.62Z" fill="#BBDAF9"/>
<path d="M422.88 209.93L144.77 370.5V362.32L422.88 201.75V209.93Z" fill="#BBDAF9"/>
<path d="M422.88 229.45L144.77 390.02V381.84L422.88 221.27V229.45Z" fill="#BBDAF9"/>
<path d="M422.88 190.41L306.02 257.88V152.1L422.88 84.62V190.41Z" fill="#BBDAF9"/>
<path d="M402.46 591.36C401.98 592.47 397.98 592.63 393.91 592.42C390.985 592.316 388.074 591.962 385.21 591.36C382.89 590.64 368.52 577.36 367.94 576.29C367.36 575.22 369.05 570.72 369.05 570.72L376.63 569.96L383.36 569.29C383.36 569.29 390.78 578.09 392.62 579.71C394.46 581.33 403.36 589.23 402.46 591.36Z" fill="#110812"/>
<path d="M427.28 568.65C426.84 569.92 426.28 570.86 425.78 571.03C424.37 571.51 410.25 560.03 408.86 558.03C407.47 556.03 399.58 555.03 399.11 553.79C398.64 552.55 400.2 548.66 400.2 548.66C402.223 547.711 404.316 546.918 406.46 546.29C409.86 545.29 413.53 544.88 414.32 547.21C415.89 551.76 425.94 559.13 427.51 561.49C428.53 563 428.09 566.34 427.28 568.65Z" fill="#110812"/>
<path style="mix-blend-mode:color-burn" d="M393.91 592.42C390.985 592.316 388.074 591.962 385.21 591.36C382.89 590.64 368.52 577.36 367.94 576.29C367.36 575.22 369.05 570.72 369.05 570.72L376.63 569.96C378.37 574.14 382.41 583.13 386.29 586.57C388.707 588.676 391.252 590.629 393.91 592.42Z" fill="url(#paint0_linear)"/>
<path style="mix-blend-mode:color-burn" d="M427.28 568.65C426.84 569.92 426.28 570.86 425.78 571.03C424.37 571.51 410.25 560.03 408.86 558.03C407.47 556.03 399.58 555.03 399.11 553.79C398.64 552.55 400.2 548.66 400.2 548.66C402.223 547.711 404.316 546.919 406.46 546.29C407.599 549.925 409.568 553.246 412.21 555.99C416.35 560.16 424.65 566.63 427.28 568.65Z" fill="url(#paint1_linear)"/>
<path d="M417.07 543.57C417.07 546.7 417.07 548.63 417.07 548.63C417.07 550.02 416.14 551.41 414.31 552.47C411.275 554.016 407.801 554.471 404.47 553.76C403.225 553.522 402.027 553.086 400.92 552.47C399.07 551.41 398.16 550.02 398.16 548.63C398.16 548.63 397.86 506.79 396.11 504C394.36 501.21 371.87 493.28 371.87 493.28C372.54 494.16 382.66 507.81 383.93 512.11C385.2 516.41 385.93 570.05 385.93 570.05C385.93 571.46 385 572.85 383.15 573.91C380.836 575.116 378.234 575.663 375.63 575.49C373.583 575.429 371.579 574.888 369.78 573.91C367.88 572.81 366.98 571.37 367.03 569.91C367.14 567.42 365.83 524.49 364.63 523.59C363.43 522.69 334.63 501.59 329.63 493.89C324.63 486.19 334.43 472.36 334.43 472.36L342.31 474.65L342.84 474.53L369.39 467.9C369.39 467.9 411.14 488.03 414.31 495.26C416.81 501 417.07 531.4 417.07 543.57Z" fill="#403B4E"/>
<path style="mix-blend-mode:color-burn" d="M375.6 575.49C373.553 575.429 371.549 574.888 369.75 573.91C367.85 572.81 366.95 571.37 367 569.91C367.11 567.42 365.8 524.49 364.6 523.59C363.4 522.69 334.6 501.59 329.6 493.89C324.6 486.19 334.4 472.36 334.4 472.36L342.28 474.65L342.81 474.53C341.5 477.79 338.95 489.83 344.1 495.12C349.88 501.06 371.9 515.03 374.23 519.54C376 522.9 375.82 557.62 375.6 575.49Z" fill="url(#paint2_linear)"/>
<path style="mix-blend-mode:color-burn" d="M404.45 553.76C403.205 553.522 402.007 553.086 400.9 552.47C399.05 551.41 398.14 550.02 398.14 548.63C398.14 548.63 397.84 506.79 396.09 504C394.34 501.21 371.85 493.28 371.85 493.28L367.94 489.28C367.94 489.28 398.3 493.83 402.07 501.28C405.24 507.56 404.69 542.72 404.45 553.76Z" fill="url(#paint3_linear)"/>
<path d="M383.37 527.08V524.83L347.13 503.9V506.14L383.37 527.08Z" fill="#0098CA"/>
<path d="M432.73 496.33V498.58L383.37 527.08V524.83L432.73 496.33Z" fill="#4CC1EC"/>
<path d="M383.37 524.83L408.05 510.58L432.73 496.33L396.5 475.4L347.13 503.9L383.37 524.83Z" fill="#2271FF"/>
<path d="M398.14 472.88L390.4 481.1L386.57 485.17C386.57 485.17 369.42 458.51 367.94 457C366.46 455.49 366.94 447.09 367.94 426C368.5 414.1 369.5 409 370.26 406.82C370.81 405.21 371.26 405.18 371.26 405.18C375.48 405.43 378.88 409.89 380.87 416.83C382.86 423.77 381.01 447.83 381.01 447.83L398.14 472.88Z" fill="#FA4F47"/>
<path style="mix-blend-mode:color-burn" d="M390.4 481.1L386.57 485.17C386.57 485.17 369.42 458.51 367.94 457C366.46 455.49 366.94 447.09 367.94 426C368.5 414.1 369.5 409 370.26 406.82H372.94C372.94 406.82 377.94 418.08 377.65 424.18C377.36 430.28 372.65 447.18 372.94 454.44L390.4 481.1Z" fill="url(#paint4_linear)"/>
<path d="M399.11 475.58C399.11 479.16 396.2 483.75 392.62 485.82C389.04 487.89 386.12 486.66 386.12 483.07C386.12 479.48 389.03 474.9 392.62 472.83C396.21 470.76 399.11 472 399.11 475.58Z" fill="#EF8B1B"/>
<path d="M376.57 436.44C376.57 436.44 370.86 446.35 370.37 450.32C369.88 454.29 369.37 467.93 369.37 467.93C369.37 467.93 364.26 479.88 346.06 480.82C341.735 481.013 337.403 480.677 333.16 479.82C327.549 471.657 324.196 462.156 323.44 452.28C323.241 450.012 323.184 447.735 323.27 445.46C323.27 444.79 323.32 444.12 323.37 443.46C323.766 437.916 324.917 432.453 326.79 427.22C326.93 426.83 327.07 426.43 327.22 426.04C327.22 426.04 349.47 408.2 371.22 405.22C371.849 405.684 372.408 406.237 372.88 406.86C375.45 410 379.64 418.23 376.57 436.44Z" fill="#DF3128"/>
<path style="mix-blend-mode:color-burn" d="M346.07 480.82C341.745 481.013 337.413 480.677 333.17 479.82C327.559 471.657 324.206 462.156 323.45 452.28L323.28 445.46V443.8L323.42 443.43L329.73 426.72C329.73 426.72 339.41 430.26 340.26 447.59C340.84 460.22 344.29 473.8 346.07 480.82Z" fill="url(#paint5_linear)"/>
<path style="mix-blend-mode:color-burn" d="M372.94 406.84C358.82 408.51 329.69 426.73 329.69 426.73L326.8 427.2C326.94 426.81 327.08 426.41 327.23 426.02C327.23 426.02 349.48 408.18 371.23 405.2C371.877 405.66 372.453 406.213 372.94 406.84Z" fill="url(#paint6_linear)"/>
<path d="M371.85 483.3L365.11 493.55L362.45 497.62C362.45 497.62 323 486 321.51 484.54C320.02 483.08 317.51 471.16 318.57 450.07C319.63 428.98 327.23 426 327.23 426C328.094 426.044 328.936 426.287 329.69 426.71C332.64 428.22 334.82 432.15 336.39 437.65C338.39 444.6 334.39 472.37 334.39 472.37L371.85 483.3Z" fill="#FA4F47"/>
<path style="mix-blend-mode:color-burn" d="M365.11 493.55L362.45 497.62C362.45 497.62 323 486 321.51 484.54C320.02 483.08 317.51 471.16 318.57 450.07C319.63 428.98 327.23 426 327.23 426C328.094 426.044 328.936 426.287 329.69 426.71C329.69 426.71 320.69 451.95 324.9 479.3L364.2 490.3L365.11 493.55Z" fill="url(#paint7_linear)"/>
<path d="M373.87 486.8C373.87 490.38 370.96 494.97 367.38 497.04C363.8 499.11 360.88 497.88 360.88 494.3C360.88 490.72 363.79 486.12 367.38 484.05C370.97 481.98 373.87 483.21 373.87 486.8Z" fill="#EF8B1B"/>
<path d="M386.19 498.35L385.56 499.92C385.316 500.491 384.918 500.982 384.41 501.34C384.053 501.599 383.648 501.782 383.218 501.88C382.789 501.978 382.344 501.988 381.91 501.91C381.356 501.799 380.85 501.519 380.46 501.11C379.232 499.84 377.589 499.052 375.83 498.89C373.52 498.7 370.47 498.45 369.6 498.47C368.785 498.079 368.005 497.617 367.27 497.09C365.41 495.88 362.83 494.09 361 492.9C361.235 491.745 361.643 490.633 362.21 489.6C363.018 488.069 364.087 486.692 365.37 485.53C368.24 486.66 370.8 488 373.83 487.34C373.99 487.34 376.95 486.64 376.95 486.64C377.316 486.56 377.697 486.575 378.056 486.684C378.414 486.792 378.739 486.991 379 487.26L385.28 493.71C385.863 494.313 386.259 495.072 386.421 495.896C386.582 496.719 386.502 497.571 386.19 498.35Z" fill="#FEC9C9"/>
<path d="M408.71 491.59L406.71 492.97L405 494.2C405 494.2 399 483.61 396.24 483.84C394.83 483.96 395.1 486 395.68 487.96C396.044 489.166 396.492 490.346 397.02 491.49C397.02 491.49 393.58 491.07 392.52 489.8C391.661 488.872 390.931 487.833 390.35 486.71C389.606 485.148 389.217 483.44 389.21 481.71C389.213 480.28 388.69 478.899 387.74 477.83C388.19 477.056 388.713 476.326 389.3 475.65C390.234 474.533 391.346 473.577 392.59 472.82C394.13 474.57 396.49 476.95 398.23 477.37L398.85 477.55C400.819 478.203 402.748 478.968 404.63 479.84C405.156 480.082 405.619 480.445 405.98 480.898C406.341 481.351 406.591 481.883 406.71 482.45L408.71 491.59Z" fill="#FEC9C9"/>
<g style="mix-blend-mode:multiply" opacity="0.15">
<g style="mix-blend-mode:multiply" opacity="0.15">
<path d="M395.68 488C396.044 489.206 396.492 490.386 397.02 491.53C397.02 491.53 393.58 491.11 392.52 489.84C391.661 488.912 390.931 487.873 390.35 486.75C389.606 485.188 389.217 483.48 389.21 481.75C389.213 480.32 388.69 478.939 387.74 477.87C388.19 477.096 388.713 476.366 389.3 475.69C389.7 478.88 391.06 485.35 395.68 488Z" fill="#CF3838"/>
</g>
</g>
<g style="mix-blend-mode:multiply" opacity="0.15">
<g style="mix-blend-mode:multiply" opacity="0.15">
<path d="M406.75 493L405 494.2C405 494.2 399 483.61 396.24 483.84C396.24 483.84 398.41 482.11 399.12 482.53C402.173 485.618 404.745 489.148 406.75 493Z" fill="#CF3838"/>
</g>
</g>
<g style="mix-blend-mode:multiply" opacity="0.15">
<g style="mix-blend-mode:multiply" opacity="0.15">
<path d="M384.41 501.34C384.053 501.599 383.648 501.782 383.218 501.88C382.789 501.978 382.344 501.988 381.91 501.91C381.356 501.799 380.85 501.519 380.46 501.11C379.232 499.84 377.589 499.052 375.83 498.89C373.52 498.7 370.47 498.45 369.6 498.47C368.785 498.079 368.005 497.617 367.27 497.09C365.41 495.88 362.83 494.09 361 492.9C361.235 491.745 361.643 490.633 362.21 489.6C364.42 491.51 368.95 495.28 370.52 495.08C372.62 494.82 376.9 494.17 377.66 495.08C378.42 495.99 382.26 498.7 384.41 501.34Z" fill="#CF3838"/>
</g>
</g>
<path d="M391.67 491.06L383.37 524.83L432.73 496.33L441.03 462.56L391.67 491.06Z" fill="#4CC1EC"/>
<path d="M390.33 490.29L391.67 491.06L441.03 462.56L439.69 461.78L390.33 490.29Z" fill="#26ADDB"/>
<path d="M383.37 524.83L382.03 524.05L390.33 490.29L391.67 491.06L383.37 524.83Z" fill="#0098CA"/>
<path d="M358.85 428.93C353.75 427.24 349.01 420.75 346.65 417.09C345.65 415.53 345.1 414.48 345.1 414.48L346.1 409.91L348.82 407.58C349.866 407.767 350.901 408.01 351.92 408.31C355.71 409.36 361.69 411.74 362.52 416.2C363.68 422.8 358.85 428.93 358.85 428.93Z" fill="#FEC9C9"/>
<g style="mix-blend-mode:multiply" opacity="0.15">
<g style="mix-blend-mode:multiply" opacity="0.15">
<path d="M351.88 408.31L346.65 417.09C345.65 415.53 345.1 414.48 345.1 414.48L346.1 409.91L348.82 407.58C349.852 407.768 350.874 408.012 351.88 408.31Z" fill="#CF3838"/>
</g>
</g>
<path d="M362.58 421.3C356.85 422.13 347.58 414.74 347.58 414.74L346.98 410.25C346.98 410.25 346.38 410.7 343.91 407.79C343.16 403.74 341.91 396.33 340 389.55C343.38 380.78 353.86 380.48 360.1 382.28C367.91 384.52 368.98 392.28 369.51 396.33C370.04 400.38 367 420.65 362.58 421.3Z" fill="#FEC9C9"/>
<path d="M370.66 394.55C370.47 395.74 370.34 396.95 370.25 398.15C370.15 399.7 370.5 401.82 369.37 402.15C369.37 401.79 369.37 401.41 369.44 401.05C369.53 400.05 369.94 393.63 367.65 394.55L367.43 394.71C366.94 394.983 366.41 395.179 365.86 395.29C365.601 395.348 365.336 395.378 365.07 395.38C357.28 395.76 356.73 394.28 354.4 394.32C354.094 394.344 353.799 394.443 353.541 394.609C353.282 394.775 353.069 395.002 352.92 395.27C351.798 397.067 351.224 399.152 351.27 401.27C351.463 402.752 351.443 404.254 351.21 405.73C351.036 405.907 350.803 406.013 350.555 406.028C350.308 406.043 350.064 405.965 349.87 405.81C349.724 405.674 349.596 405.519 349.49 405.35C348.76 404.24 349.56 398.82 346.81 399.58C344.87 400.3 343.74 402.33 345.59 407.73C345.629 407.837 345.683 407.938 345.75 408.03C345.816 408.105 345.864 408.194 345.89 408.29C346.175 409.435 346.359 410.603 346.44 411.78H345.11C344.601 409.067 343.399 406.531 341.62 404.42C339.506 401.87 338.124 398.794 337.62 395.52C337.24 393.02 337.2 390.52 337.85 389.24C338.774 387.428 340.006 385.791 341.49 384.4C343.2 382.853 345.204 381.666 347.383 380.911C349.561 380.155 351.869 379.845 354.17 380C354.17 380 364.01 379.62 368.31 383.95C369.275 384.87 370.079 385.945 370.69 387.13C371.069 387.85 371.317 388.633 371.42 389.44C371.7 391.52 370.92 393.14 370.66 394.55Z" fill="#110812"/>
<g style="mix-blend-mode:multiply" opacity="0.15">
<g style="mix-blend-mode:multiply" opacity="0.15">
<path d="M362.58 421.3C356.85 422.13 347.58 414.74 347.58 414.74L346.98 410.25C346.98 410.25 346.38 410.7 343.91 407.79C343.16 403.74 341.91 396.33 340 389.55L350.9 392.7C350.9 392.7 349.49 412.38 349.9 414.07C350.31 415.76 362.58 421.3 362.58 421.3Z" fill="#CF3838"/>
</g>
</g>
<path style="mix-blend-mode:color-burn" d="M370.69 387.17C366.41 385.83 357.69 384.12 351.02 389.55C351.02 389.55 349.36 391.45 349.87 405.77C349.719 405.646 349.591 405.497 349.49 405.33C348.76 404.22 349.56 398.8 346.81 399.56C344.87 400.28 343.74 402.31 345.59 407.71C345.629 407.817 345.683 407.918 345.75 408.01C345.816 408.085 345.864 408.174 345.89 408.27C346.175 409.415 346.359 410.583 346.44 411.76H345.11C344.601 409.047 343.399 406.511 341.62 404.4C339.506 401.85 338.124 398.774 337.62 395.5C337.24 393 337.2 390.5 337.85 389.22C338.774 387.408 340.006 385.771 341.49 384.38C343.202 382.837 345.206 381.654 347.385 380.901C349.563 380.149 351.871 379.842 354.17 380C354.17 380 364.01 379.62 368.31 383.95C369.278 384.882 370.083 385.971 370.69 387.17Z" fill="url(#paint8_linear)"/>
<defs>
<linearGradient id="paint0_linear" x1="367.81" y1="581.19" x2="393.91" y2="581.19" gradientUnits="userSpaceOnUse">
<stop offset="0.01" stop-color="#EBEAF0"/>
<stop offset="0.99" stop-color="#E5E4EC"/>
</linearGradient>
<linearGradient id="paint1_linear" x1="11674.6" y1="14375.7" x2="12473.2" y2="14375.7" gradientUnits="userSpaceOnUse">
<stop offset="0.01" stop-color="#EBEAF0"/>
<stop offset="0.99" stop-color="#E5E4EC"/>
</linearGradient>
<linearGradient id="paint2_linear" x1="19033" y1="57056.7" x2="14278.1" y2="55609.7" gradientUnits="userSpaceOnUse">
<stop offset="0.01" stop-color="#EBEAF0"/>
<stop offset="0.99" stop-color="#E5E4EC"/>
</linearGradient>
<linearGradient id="paint3_linear" x1="15641.6" y1="35054.4" x2="13098.1" y2="34099.1" gradientUnits="userSpaceOnUse">
<stop offset="0.01" stop-color="#EBEAF0"/>
<stop offset="0.99" stop-color="#E5E4EC"/>
</linearGradient>
<linearGradient id="paint4_linear" x1="9608.96" y1="34153" x2="8332.81" y2="34504.8" gradientUnits="userSpaceOnUse">
<stop offset="0.01" stop-color="#EBEAF0"/>
<stop offset="0.99" stop-color="#E5E4EC"/>
</linearGradient>
<linearGradient id="paint5_linear" x1="8250.1" y1="24474.3" x2="7283.5" y2="24871.5" gradientUnits="userSpaceOnUse">
<stop offset="0.01" stop-color="#EBEAF0"/>
<stop offset="0.99" stop-color="#E5E4EC"/>
</linearGradient>
<linearGradient id="paint6_linear" x1="17491.3" y1="9603.4" x2="15499.7" y2="9258.16" gradientUnits="userSpaceOnUse">
<stop offset="0.01" stop-color="#EBEAF0"/>
<stop offset="0.99" stop-color="#E5E4EC"/>
</linearGradient>
<linearGradient id="paint7_linear" x1="16818.3" y1="33296" x2="15015.5" y2="33731.4" gradientUnits="userSpaceOnUse">
<stop offset="0.01" stop-color="#EBEAF0"/>
<stop offset="0.99" stop-color="#E5E4EC"/>
</linearGradient>
<linearGradient id="paint8_linear" x1="11584.8" y1="12969.1" x2="12697.8" y2="12969.1" gradientUnits="userSpaceOnUse">
<stop offset="0.01" stop-color="#EBEAF0"/>
<stop offset="0.99" stop-color="#E5E4EC"/>
</linearGradient>
</defs>
</svg>
