<svg width="750" height="600" viewBox="0 0 750 600" fill="none" xmlns="http://www.w3.org/2000/svg">
<path d="M715.31 343.4V378C715.31 385 710.69 392 701.46 397.31L468.59 531.68C450.12 542.31 420.18 542.31 401.71 531.68L48.71 327.91C39.48 322.55 34.86 315.59 34.86 308.59V273.39L69.92 277L281.55 154.92C300.02 144.24 329.91 144.24 348.38 154.92L666.26 338.34L715.31 343.4Z" fill="#2271FF"/>
<g opacity="0.5">
<path opacity="0.5" d="M401.71 452V531.64L48.71 327.87C39.48 322.51 34.86 315.55 34.86 308.55V273.35L69.92 277L401.71 452Z" fill="#421D46"/>
</g>
<path d="M701.36 362.69L468.47 497.09C450.01 507.75 420.08 507.75 401.61 497.09L48.53 293.31C30.07 282.65 30.07 265.37 48.53 254.71L281.42 120.32C299.88 109.66 329.81 109.66 348.28 120.32L701.36 324.09C719.82 334.75 719.82 352 701.36 362.69Z" fill="#2271FF"/>
<path d="M705.73 342.41C705.73 345.63 702.54 349.41 697.23 352.41L572.4 424.41L570.45 425.54L464.35 486.78C457.13 490.95 446.89 493.35 436.27 493.35C425.65 493.35 415.43 490.95 408.19 486.78L293.88 420.78L256.42 399.17L227.03 382.17L188.91 360.17L55.13 283.06C49.79 280 46.62 276.25 46.62 273.06C46.62 269.87 49.79 266.06 55.13 263.06L288 128.61C291.394 126.707 295.021 125.255 298.79 124.29C304.423 122.786 310.23 122.036 316.06 122.06C321.618 122.044 327.157 122.715 332.55 124.06C336.601 125.04 340.501 126.568 344.14 128.6L697.23 332.39C702.54 335.47 705.73 339.22 705.73 342.41Z" fill="#FFFEFF"/>
<path d="M436.27 489.46C426.34 489.46 416.82 487.26 410.16 483.46L295.85 417.46L258.39 395.85L57.1 279.64C52.31 276.89 50.57 274.19 50.57 273.04C50.57 271.89 52.31 269.19 57.09 266.44L290 132C293.096 130.27 296.404 128.949 299.84 128.07C305.136 126.671 310.593 125.975 316.07 126C321.298 125.987 326.508 126.622 331.58 127.89C335.284 128.762 338.848 130.145 342.17 132L695.26 335.81C700.01 338.57 701.78 341.33 701.78 342.41C701.78 343.49 700.04 346.26 695.25 349.04L570.43 421.04L568.43 422.18L462.33 483.41C455.73 487.26 446.22 489.46 436.27 489.46Z" fill="#FFFEFF"/>
<path d="M337.39 16L331.56 12.63C328.25 10.63 323.44 10.94 318.06 14.05L79.73 151.65L76.82 159.65L107.22 177.2V279.48C107.22 283.69 108.71 286.69 111.22 288.28L117.16 291.71L119.1 289.18C121.082 288.686 122.981 287.908 124.74 286.87L318.06 175.23C327.72 169.66 335.55 157.31 335.55 147.66V21.44C335.55 20.4727 335.453 19.5078 335.26 18.56L337.39 16Z" fill="url(#paint0_linear)"/>
<g style="mix-blend-mode:multiply">
<path d="M337.39 16L331.56 12.63C328.25 10.63 323.44 10.94 318.06 14.05L79.73 151.65L76.82 159.65L107.22 177.2V279.48C107.22 283.69 108.71 286.69 111.22 288.28L117.16 291.71L119.1 289.18C121.082 288.686 122.981 287.908 124.74 286.87L318.06 175.23C327.72 169.66 335.55 157.31 335.55 147.66V21.44C335.55 20.4727 335.453 19.5078 335.26 18.56L337.39 16Z" fill="#BBDAF9"/>
</g>
<path d="M82.88 163.21L113.28 180.76V283C113.28 292.66 121.11 296 130.76 290.39L324.12 178.75C333.77 173.17 341.6 160.82 341.6 151.17V25C341.6 15.34 333.77 12 324.12 17.61L85.79 155.16L82.88 163.21Z" fill="#E1EDF9"/>
<path d="M327 46.45L127.76 161.45C125.48 162.77 123.63 161.99 123.63 159.71C123.63 157.43 125.48 154.51 127.76 153.19L327 38.19C329.28 36.88 331.13 37.66 331.13 39.94C331.13 42.22 329.27 45.14 327 46.45Z" fill="#2271FF"/>
<path d="M327 84.12L127.76 199.12C125.48 200.43 123.63 199.65 123.63 197.37C123.63 195.09 125.48 192.17 127.76 190.85L327 75.86C329.28 74.54 331.13 75.32 331.13 77.6C331.13 79.88 329.27 82.8 327 84.12Z" fill="#2271FF"/>
<path d="M327 121.78L127.76 236.78C125.48 238.1 123.63 237.31 123.63 235.03C123.63 232.75 125.48 229.83 127.76 228.52L327 113.52C329.28 112.2 331.13 112.98 331.13 115.26C331.13 117.54 329.27 120.46 327 121.78Z" fill="#2271FF"/>
<path d="M327 159.44L127.76 274.44C125.48 275.76 123.63 274.98 123.63 272.7C123.63 270.42 125.48 267.5 127.76 266.18L327 151.18C329.28 149.86 331.13 150.65 331.13 152.93C331.13 155.21 329.27 158.13 327 159.44Z" fill="#2271FF"/>
<path d="M516.82 36.62L510.74 33.11L285.25 163.3C275.59 168.88 267.76 181.23 267.76 190.88V301.07C267.76 305.3 269.27 308.31 271.76 309.89L277.86 313.42L280.32 310.58C282.04 310.077 283.693 309.365 285.24 308.46L465.77 204.23C475.43 198.65 483.26 186.31 483.26 176.65V90.45L509.31 45.33L516.82 36.62Z" fill="#FFFEFF"/>
<g style="mix-blend-mode:multiply">
<path d="M516.82 36.62L510.74 33.11L285.25 163.3C275.59 168.88 267.76 181.23 267.76 190.88V301.07C267.76 305.3 269.27 308.31 271.76 309.89L277.86 313.42L280.32 310.58C282.04 310.077 283.693 309.365 285.24 308.46L465.77 204.23C475.43 198.65 483.26 186.31 483.26 176.65V90.45L509.31 45.33L516.82 36.62Z" fill="#BBDAF9"/>
</g>
<path d="M519.73 41.31L489.33 94V180.19C489.33 189.85 481.51 202.19 471.85 207.77L291.32 312C281.67 317.57 273.84 314.27 273.84 304.61V194.4C273.84 184.74 281.67 172.4 291.32 166.82L516.83 36.62L519.73 41.31Z" fill="#E1EDF9"/>
<path d="M466.44 102.32L296.44 200.45C294.33 201.67 292.62 200.95 292.62 198.84V198.22C292.746 196.992 293.156 195.809 293.82 194.768C294.483 193.726 295.38 192.854 296.44 192.22L466.44 94.09C468.55 92.87 470.26 93.59 470.26 95.7V96.32C470.134 97.5485 469.724 98.7306 469.06 99.7723C468.397 100.814 467.5 101.686 466.44 102.32Z" fill="#2271FF"/>
<path d="M466.44 140L296.44 238.13C294.33 239.35 292.62 238.63 292.62 236.52V235.9C292.746 234.672 293.156 233.489 293.82 232.448C294.483 231.406 295.38 230.534 296.44 229.9L466.44 131.77C468.55 130.55 470.26 131.27 470.26 133.38V134C470.134 135.228 469.724 136.411 469.06 137.452C468.397 138.494 467.5 139.366 466.44 140Z" fill="#2271FF"/>
<path d="M466.44 177.64L296.44 275.78C294.33 277 292.62 276.27 292.62 274.16V273.54C292.743 272.311 293.153 271.128 293.817 270.086C294.48 269.044 295.379 268.172 296.44 267.54L466.44 169.4C468.55 168.18 470.26 168.91 470.26 171.02V171.64C470.137 172.869 469.727 174.052 469.063 175.094C468.4 176.136 467.501 177.008 466.44 177.64Z" fill="#2271FF"/>
<g style="mix-blend-mode:multiply" opacity="0.1">
<g style="mix-blend-mode:multiply" opacity="0.1">
<path d="M266.37 588.64C309.719 588.64 344.86 568.354 344.86 543.33C344.86 518.306 309.719 498.02 266.37 498.02C223.021 498.02 187.88 518.306 187.88 543.33C187.88 568.354 223.021 588.64 266.37 588.64Z" fill="#607080"/>
</g>
</g>
<path d="M266.48 579.64C267.36 581.64 274.69 581.97 282.15 581.58C289.03 581.23 296.01 580.29 298.08 579.64C302.34 578.32 328.67 553.99 329.73 552.02C330.79 550.05 327.73 541.82 327.73 541.82L313.84 540.43L301.5 539.2C301.5 539.2 287.9 555.32 284.5 558.29C281.1 561.26 264.84 575.73 266.48 579.64Z" fill="#110812"/>
<path d="M221 538C221.81 540.32 222.84 542 223.75 542.36C226.33 543.23 252.21 522.23 254.75 518.48C257.29 514.73 271.75 513.02 272.61 510.7C273.47 508.38 270.61 501.3 270.61 501.3C266.906 499.575 263.075 498.137 259.15 497C252.92 495.19 246.2 494.42 244.74 498.68C241.87 507.01 223.45 520.52 220.58 524.85C218.71 527.63 219.51 533.8 221 538Z" fill="#110812"/>
<path style="mix-blend-mode:multiply" d="M282.15 581.58C289.03 581.23 296.01 580.29 298.08 579.64C302.34 578.32 328.67 553.99 329.73 552.02C330.79 550.05 327.73 541.82 327.73 541.82L313.84 540.43C310.64 548.08 303.24 564.56 296.14 570.86C291.701 574.717 287.029 578.297 282.15 581.58Z" fill="url(#paint1_linear)"/>
<path style="mix-blend-mode:multiply" d="M221 538C221.81 540.32 222.84 542 223.75 542.36C226.33 543.23 252.21 522.23 254.75 518.48C257.29 514.73 271.75 513.02 272.61 510.7C273.47 508.38 270.61 501.3 270.61 501.3C266.906 499.575 263.075 498.137 259.15 497C257.065 503.66 253.46 509.743 248.62 514.77C241 522.47 225.81 534.32 221 538Z" fill="url(#paint2_linear)"/>
<path d="M399.94 401.1C390.83 415.24 338.11 453.83 335.85 455.54C333.59 457.25 331.27 535.85 331.46 540.38C331.55 543.01 329.88 545.65 326.46 547.68C323.149 549.439 319.486 550.433 315.74 550.59C314.818 550.66 313.892 550.66 312.97 550.59C309.134 550.472 305.375 549.491 301.97 547.72C298.55 545.78 296.84 543.19 296.84 540.6C296.84 540.6 298.09 442.6 300.49 434.46C302.85 426.61 321.38 401.61 322.49 400.03C320.87 400.59 299.99 407.98 287.42 413.9C282.61 416.21 279.01 418.24 278.13 419.63C274.94 424.71 274.39 501.37 274.39 501.37C274.39 503.91 272.72 506.5 269.39 508.44C267.346 509.545 265.148 510.341 262.87 510.8C259.799 511.417 256.647 511.525 253.54 511.12C250.495 510.806 247.543 509.895 244.85 508.44C241.48 506.5 239.77 503.91 239.77 501.37C239.77 501.37 239.77 497.86 239.77 492.08C239.77 469.81 240.28 414.17 244.86 403.64C250.68 390.42 327.16 353.5 327.16 353.5L375.81 365.65L376.81 365.89L386.61 363.02L391.28 361.68C392.749 363.841 394.104 366.078 395.34 368.38C397.215 371.707 398.807 375.186 400.1 378.78C402.66 386.22 404 394.77 399.94 401.1Z" fill="#403B4E"/>
<g style="mix-blend-mode:multiply" opacity="0.5">
<g style="mix-blend-mode:multiply" opacity="0.5">
<path d="M405.11 374.35L400 378.74L385.86 390.89L322.6 454.06L312.95 550.55C309.114 550.432 305.355 549.451 301.95 547.68C298.53 545.74 296.82 543.15 296.82 540.56C296.82 540.56 298.07 442.56 300.47 434.42C302.83 426.57 321.36 401.57 322.47 399.99C320.85 400.55 299.97 407.94 287.4 413.86L263.6 416.63L253.5 511.08C250.455 510.766 247.503 509.855 244.81 508.4C241.44 506.46 239.73 503.87 239.73 501.33C239.73 501.33 239.73 497.82 239.73 492.04C239.73 469.77 240.24 414.13 244.82 403.6C250.64 390.38 327.12 353.46 327.12 353.46L375.77 365.61L376.77 365.85L386.57 362.98L395.3 368.34L405.11 374.35Z" fill="#582F5C"/>
</g>
</g>
<path d="M301.46 461.86V457.74L367.85 419.39V423.5L301.46 461.86Z" fill="#4CC1EC"/>
<path d="M211.01 405.52V409.64L301.46 461.86V457.74L211.01 405.52Z" fill="#0098CA"/>
<path d="M301.46 457.74L256.23 431.63L211.01 405.52L277.4 367.17L367.85 419.39L301.46 457.74Z" fill="#26ADDB"/>
<path d="M329.75 333.5C327.02 336.23 295.6 385.07 295.6 385.07L288.6 377.63L282.29 371L274.39 362.59L305.72 316.71C305.72 316.71 302.39 272.71 305.99 259.92C309.59 247.13 315.88 239.03 323.6 238.57C323.6 238.57 323.88 238.57 324.29 239.08C324.803 239.845 325.194 240.685 325.45 241.57C326.88 245.57 328.68 254.93 329.75 276.74C331.59 315.34 332.47 330.77 329.75 333.5Z" fill="#FA4F47"/>
<path d="M272.61 367.49C272.61 374.07 277.94 382.49 284.51 386.26C291.08 390.03 296.41 387.81 296.41 381.26C296.41 374.71 291.09 366.26 284.51 362.49C277.93 358.72 272.61 360.92 272.61 367.49Z" fill="#FA4F47"/>
<path style="mix-blend-mode:multiply" d="M272.6 367.48C272.612 368.712 272.777 369.938 273.09 371.13C274.855 377.432 278.938 382.833 284.52 386.25C285.801 387.02 287.199 387.574 288.66 387.89C293.18 388.83 296.41 386.34 296.41 381.24C296.252 377.838 295.218 374.535 293.41 371.65C291.259 367.899 288.207 364.744 284.53 362.47C277.93 358.66 272.6 360.92 272.6 367.48Z" fill="url(#paint3_linear)"/>
<path d="M411.26 324.81C408.67 355.59 393.42 375.27 393.42 375.27C385.656 376.851 377.724 377.456 369.81 377.07C355.58 376.38 345.69 371.95 339.08 367.14C330.16 360.67 327.08 353.46 327.08 353.46C327.08 353.46 326.2 328.46 325.27 321.21C324.34 313.96 313.91 295.79 313.91 295.79C308.31 262.43 315.98 247.32 320.56 241.54C321.428 240.399 322.455 239.389 323.61 238.54C326.769 238.956 329.901 239.557 332.99 240.34C369.73 248.94 404.34 276.71 404.34 276.71C404.62 277.4 404.85 278.14 405.12 278.88C408.528 288.457 410.627 298.451 411.36 308.59C411.45 309.89 411.55 311.09 411.59 312.33C411.715 316.493 411.605 320.66 411.26 324.81Z" fill="#DF3128"/>
<g style="mix-blend-mode:multiply" opacity="0.25">
<g style="mix-blend-mode:multiply" opacity="0.25">
<path d="M339.08 367.14C330.16 360.67 327.08 353.46 327.08 353.46C327.08 353.46 326.2 328.46 325.27 321.21C324.34 313.96 313.91 295.79 313.91 295.79C308.31 262.43 315.98 247.32 320.56 241.54C321.428 240.399 322.455 239.389 323.61 238.54C326.769 238.956 329.901 239.557 332.99 240.34L330.77 242.93C330.77 242.93 316.54 289.69 321.11 297.22C325.68 304.75 334.65 319.77 334.65 319.77L339.08 367.14Z" fill="#BD221E"/>
</g>
</g>
<path style="mix-blend-mode:color-burn" opacity="0.5" d="M320.56 241.55C346.44 244.62 399.8 278 399.8 278L405.1 278.87C404.84 278.16 404.58 277.42 404.33 276.71C404.33 276.71 363.56 244.01 323.6 238.55C322.45 239.401 321.426 240.411 320.56 241.55V241.55Z" fill="url(#paint4_linear)"/>
<path d="M414.77 383.91C412.05 386.64 339.77 407.91 339.77 407.91L334.92 400.42L324.52 384.62L322.58 381.62L391.16 361.62C391.16 361.62 383.86 310.74 387.51 298.04C390.42 287.96 394.39 280.75 399.8 277.98C401.192 277.212 402.742 276.77 404.33 276.69C404.33 276.69 418.33 282.14 420.18 320.69C422.03 359.24 417.5 381.19 414.77 383.91Z" fill="#FA4F47"/>
<path d="M318.86 388.05C318.86 394.62 324.19 403.05 330.76 406.82C337.33 410.59 342.66 408.36 342.66 401.82C342.66 395.28 337.33 386.82 330.76 383.05C324.19 379.28 318.86 381.48 318.86 388.05Z" fill="#FA4F47"/>
<path style="mix-blend-mode:multiply" d="M318.86 388.06C318.85 388.395 318.873 388.73 318.93 389.06C319.38 395.42 324.52 403.21 330.75 406.82C337.44 410.57 342.67 408.31 342.67 401.82C342.655 400.966 342.582 400.114 342.45 399.27C341.244 394.051 338.449 389.334 334.45 385.77C333.329 384.731 332.094 383.822 330.77 383.06C324.19 379.24 318.86 381.47 318.86 388.06Z" fill="url(#paint5_linear)"/>
<path style="mix-blend-mode:multiply" d="M296.43 381.23C296.43 386.36 293.19 388.81 288.67 387.89C287.194 387.59 285.784 387.024 284.51 386.22C278.927 382.812 274.845 377.411 273.09 371.11C272.769 369.919 272.598 368.693 272.58 367.46C272.58 364.83 273.46 362.89 274.94 361.78C277.11 360.07 280.58 360.21 284.51 362.47C285.953 363.315 287.295 364.321 288.51 365.47C290.461 367.289 292.127 369.393 293.45 371.71C295.25 374.572 296.277 377.852 296.43 381.23Z" fill="url(#paint6_linear)"/>
<path style="mix-blend-mode:multiply" d="M342.68 401.8C342.68 408.31 337.42 410.58 330.95 406.93C324.48 403.28 319.39 395.42 318.95 389.04C318.929 388.707 318.929 388.373 318.95 388.04C318.95 384.65 320.41 382.5 322.65 381.63L324.03 381.2C326.429 381.061 328.809 381.696 330.82 383.01C331.408 383.334 331.979 383.688 332.53 384.07C333.18 384.58 333.83 385.07 334.47 385.69C338.479 389.262 341.276 393.995 342.47 399.23C342.611 400.079 342.682 400.939 342.68 401.8Z" fill="url(#paint7_linear)"/>
<path d="M342.45 399.26C339.08 401.47 334.37 404.71 330.95 406.93C329.6 407.869 328.179 408.701 326.7 409.42C325.08 409.42 319.49 409.88 315.28 410.21C312.049 410.492 309.03 411.934 306.78 414.27C306.077 415.022 305.158 415.539 304.15 415.75C303.488 415.866 302.812 415.866 302.15 415.75C301.199 415.609 300.294 415.246 299.51 414.69C298.606 414.019 297.89 413.127 297.43 412.1L296.28 409.24C295.71 407.812 295.563 406.25 295.857 404.741C296.152 403.231 296.875 401.839 297.94 400.73L309.45 388.9C309.926 388.408 310.518 388.044 311.172 387.843C311.826 387.642 312.52 387.61 313.19 387.75L318.65 389.04H318.92C324.47 390.24 329.18 387.8 334.4 385.72C336.772 387.848 338.746 390.381 340.23 393.2C340.36 393.48 340.5 393.76 340.64 394.08C341.447 395.729 342.054 397.468 342.45 399.26V399.26Z" fill="#FEC9C9"/>
<g style="mix-blend-mode:multiply" opacity="0.15">
<g style="mix-blend-mode:multiply" opacity="0.15">
<path d="M340.65 394.08C335.94 397.36 328.91 401.89 326.74 401.61C323.37 401.24 312.88 403.32 310.61 405.54C309.18 406.93 305.02 412.1 302.16 415.75C301.209 415.609 300.304 415.246 299.52 414.69C298.616 414.019 297.9 413.127 297.44 412.1L296.29 409.24C295.72 407.812 295.573 406.25 295.867 404.741C296.162 403.231 296.885 401.839 297.95 400.73L309.46 388.9C309.936 388.408 310.528 388.044 311.182 387.843C311.836 387.642 312.53 387.61 313.2 387.75L318.66 389.04H318.93C324.48 390.24 329.19 387.8 334.41 385.72C336.782 387.848 338.756 390.381 340.24 393.2C340.37 393.48 340.51 393.76 340.65 394.08Z" fill="#CF3838"/>
</g>
</g>
<path d="M293.42 371.67C291.697 373.622 290.744 376.136 290.74 378.74C290.719 381.904 290.013 385.025 288.67 387.89C287.606 389.947 286.259 391.845 284.67 393.53C282.73 395.88 276.45 396.67 276.45 396.67C277.408 394.571 278.223 392.409 278.89 390.2C279.96 386.59 280.42 382.85 277.83 382.62C272.83 382.2 261.83 401.62 261.83 401.62L258.64 399.4C258.51 399.281 258.369 399.174 258.22 399.08L255 396.85L258.66 380.12C258.879 379.076 259.34 378.099 260.005 377.265C260.67 376.432 261.521 375.766 262.49 375.32C265.935 373.72 269.468 372.315 273.07 371.11C273.44 371.02 273.86 370.88 274.18 370.79C277.42 370.05 281.71 365.66 284.53 362.47C286.816 363.859 288.862 365.608 290.59 367.65C290.86 367.97 291.09 368.29 291.33 368.65C292.107 369.599 292.806 370.609 293.42 371.67V371.67Z" fill="#FEC9C9"/>
<g style="mix-blend-mode:multiply" opacity="0.15">
<g style="mix-blend-mode:multiply" opacity="0.15">
<path d="M291.35 368.62C288.975 370.64 286.154 372.065 283.12 372.78C277.39 374.16 269.4 377.26 265.84 384.1C262.97 389.74 260.25 395.1 258.21 399.1L255 396.85L258.66 380.12C258.879 379.076 259.34 378.099 260.005 377.265C260.67 376.432 261.521 375.766 262.49 375.32C265.935 373.72 269.468 372.315 273.07 371.11C273.44 371.02 273.86 370.88 274.18 370.79C277.42 370.05 281.71 365.66 284.53 362.47C286.816 363.859 288.862 365.608 290.59 367.65C290.88 368 291.11 368.29 291.35 368.62Z" fill="#CF3838"/>
</g>
</g>
<path d="M286.25 395.87L301.46 457.74L211.01 405.52L195.8 343.65L286.25 395.87Z" fill="#0098CA"/>
<path d="M288.71 394.45L286.25 395.87L195.8 343.65L198.26 342.22L288.71 394.45Z" fill="#26ADDB"/>
<path d="M301.46 457.74L303.92 456.32L288.71 394.45L286.25 395.87L301.46 457.74Z" fill="#4CC1EC"/>
<path d="M371.57 255.54C371.57 255.54 370.57 257.48 368.75 260.3C367.36 262.43 365.6 265.06 363.48 267.74C358.86 273.66 352.8 279.9 346.38 282.02C346.38 282.02 337.55 270.79 339.73 258.73C341.25 250.64 351.93 246.25 358.86 244.31C358.95 244.31 359.04 244.31 359.13 244.22C361.003 243.693 362.902 243.262 364.82 242.93L369.82 247.18L371.57 255.54Z" fill="#FEC9C9"/>
<g style="mix-blend-mode:multiply" opacity="0.15">
<g style="mix-blend-mode:multiply" opacity="0.15">
<path d="M363.48 267.74C358.86 273.66 352.8 279.9 346.38 282.02C346.38 282.02 337.55 270.79 339.73 258.73C341.25 250.64 351.93 246.25 358.86 244.31L363.48 267.74Z" fill="#CF3838"/>
</g>
</g>
<path d="M381 209.75C377.44 222.32 375.17 235.86 373.79 243.3C369.26 248.61 368.2 247.78 368.2 247.78L367 256.05C367 256.05 351.15 268.62 340.61 268.11C340.52 268.11 340.43 268.16 340.33 268.11C340.054 268.13 339.776 268.13 339.5 268.11C331.42 266.9 325.82 229.8 326.79 222.36C327.53 216.77 328.79 207.57 335.2 201.52C337.696 199.186 340.729 197.503 344.03 196.62C355.53 193.25 374.71 193.81 381 209.75Z" fill="#FEC9C9"/>
<g style="mix-blend-mode:multiply" opacity="0.15">
<g style="mix-blend-mode:multiply" opacity="0.15">
<path d="M362.83 207L359.13 219.47C359.13 219.47 356.27 265.47 340.65 268.13C340.56 268.13 340.47 268.18 340.37 268.13C340.094 268.15 339.816 268.15 339.54 268.13C331.46 266.92 325.86 229.82 326.83 222.38C327.57 216.79 328.83 207.59 335.24 201.54L362.83 207Z" fill="#CF3838"/>
</g>
</g>
<path d="M324.74 219C325.1 221.17 325.32 223.39 325.49 225.59C325.68 228.43 325.03 232.31 327.1 232.89C327.04 232.25 327.04 231.53 326.97 230.89C326.81 229.08 326.07 217.29 330.27 218.97C330.383 219.083 330.511 219.181 330.65 219.26C331.545 219.77 332.518 220.128 333.53 220.32C334.005 220.432 334.492 220.489 334.98 220.49C349.26 221.2 350.26 218.49 354.53 218.55C355.09 218.593 355.631 218.775 356.104 219.079C356.577 219.382 356.967 219.799 357.24 220.29C359.41 223.17 360.5 228.82 360.24 231.29C359.91 234.68 359.98 239.1 360.33 239.46C360.411 239.494 360.489 239.538 360.56 239.59C360.872 239.853 361.267 239.997 361.675 239.997C362.083 239.997 362.478 239.853 362.79 239.59C363.063 239.343 363.302 239.06 363.5 238.75C364.82 236.75 363.37 226.8 368.41 228.19C371.96 229.51 374.03 233.19 370.64 243.11C370.565 243.304 370.467 243.488 370.35 243.66C370.232 243.801 370.143 243.964 370.09 244.14C369.565 246.239 369.23 248.381 369.09 250.54L371.51 250.47C372.473 245.495 374.709 240.854 378 237C381.902 232.336 384.46 226.698 385.4 220.69C386.11 216.1 386.17 211.58 384.98 209.19C383.298 205.862 381.044 202.856 378.32 200.31C375.162 197.498 371.469 195.352 367.462 194.002C363.454 192.651 359.216 192.123 355 192.45C355 192.45 337 191.74 329.09 199.69C327.326 201.377 325.853 203.343 324.73 205.51C324.043 206.831 323.593 208.263 323.4 209.74C322.84 213.48 324.26 216.46 324.74 219Z" fill="#110812"/>
<g style="mix-blend-mode:multiply" opacity="0.25">
<g style="mix-blend-mode:multiply" opacity="0.25">
<path d="M320.55 241.54C320.55 241.54 307.66 259.1 313.34 292.23L315.47 322L288.47 365.39C287.27 364.253 285.953 363.248 284.54 362.39C280.54 360.13 277.1 359.99 274.93 361.7L305.71 316.6C305.71 316.6 302.38 272.6 305.98 259.81C309.58 247.02 315.87 238.92 323.59 238.46C323.59 238.46 323.87 238.46 324.28 238.97L320.55 241.54Z" fill="#BD221E"/>
</g>
</g>
<g style="mix-blend-mode:multiply" opacity="0.25">
<g style="mix-blend-mode:multiply" opacity="0.25">
<path d="M399.48 365.43L332.48 384.1C331.929 383.718 331.358 383.364 330.77 383.04C328.759 381.726 326.379 381.091 323.98 381.23L391.17 361.64C391.17 361.64 383.87 310.76 387.52 298.06L399.48 365.43Z" fill="#BD221E"/>
</g>
</g>
<path d="M610.15 234.86L603.77 231.1C600.55 229.1 595.77 229.47 590.36 232.58L406.54 338.7L403.63 346.75L434 364.3V450.5C434 454.76 435.52 457.78 438 459.35L443.61 462.6L443.45 460.55C446.286 460.29 449.023 459.38 451.45 457.89L590.29 377.73C599.94 372.15 607.77 359.81 607.77 350.15V240C607.769 239.28 607.716 238.562 607.61 237.85L610.15 234.86Z" fill="#FFFEFF"/>
<g style="mix-blend-mode:multiply">
<path d="M610.15 234.86L603.77 231.1C600.55 229.1 595.77 229.47 590.36 232.58L406.54 338.7L403.63 346.75L434 364.3V450.5C434 454.76 435.52 457.78 438 459.35L443.61 462.6L443.45 460.55C446.286 460.29 449.023 459.38 451.45 457.89L590.29 377.73C599.94 372.15 607.77 359.81 607.77 350.15V240C607.769 239.28 607.716 238.562 607.61 237.85L610.15 234.86Z" fill="#BBDAF9"/>
</g>
<path d="M409.69 350.3L440.09 367.85V454.05C440.09 463.7 447.92 467.05 457.58 461.44L596.41 381.28C606.07 375.7 613.9 363.36 613.9 353.7V243.52C613.9 233.86 606.07 230.52 596.41 236.13L412.6 342.25L409.69 350.3Z" fill="#E1EDF9"/>
<path d="M591.14 277.37L462.85 351.44C460.74 352.66 459.03 351.93 459.03 349.82V349.2C459.153 347.971 459.563 346.788 460.227 345.746C460.89 344.704 461.789 343.832 462.85 343.2L591.14 269.13C593.25 267.91 594.96 268.64 594.96 270.75V271.36C594.837 272.59 594.427 273.775 593.764 274.819C593.1 275.862 592.202 276.736 591.14 277.37Z" fill="#2271FF"/>
<path d="M591.14 315L462.85 389.1C460.74 390.32 459.03 389.6 459.03 387.49V386.87C459.156 385.642 459.566 384.459 460.23 383.418C460.893 382.376 461.79 381.504 462.85 380.87L591.14 306.8C593.25 305.59 594.96 306.31 594.96 308.42V309C594.834 310.228 594.424 311.411 593.76 312.452C593.097 313.494 592.2 314.366 591.14 315Z" fill="#2271FF"/>
<path d="M591.14 352.7L462.85 426.76C460.74 427.98 459.03 427.26 459.03 425.15V424.53C459.156 423.302 459.566 422.119 460.23 421.078C460.893 420.036 461.79 419.164 462.85 418.53L591.14 344.47C593.25 343.25 594.96 343.97 594.96 346.08V346.7C594.834 347.928 594.424 349.111 593.76 350.152C593.097 351.194 592.2 352.066 591.14 352.7Z" fill="#2271FF"/>
<defs>
<linearGradient id="paint0_linear" x1="78.43" y1="233.23" x2="366.71" y2="66.79" gradientUnits="userSpaceOnUse">
<stop offset="0.02" stop-color="#EBFFFF"/>
<stop offset="1" stop-color="white"/>
</linearGradient>
<linearGradient id="paint1_linear" x1="329.95" y1="561" x2="282.15" y2="561" gradientUnits="userSpaceOnUse">
<stop offset="0.01" stop-color="#EBEAF0"/>
<stop offset="0.99" stop-color="#E5E4EC"/>
</linearGradient>
<linearGradient id="paint2_linear" x1="-186619" y1="24085.1" x2="-183939" y2="24085.1" gradientUnits="userSpaceOnUse">
<stop offset="0.01" stop-color="#EBEAF0"/>
<stop offset="0.99" stop-color="#E5E4EC"/>
</linearGradient>
<linearGradient id="paint3_linear" x1="-85667" y1="10669" x2="-86206.2" y2="10630.4" gradientUnits="userSpaceOnUse">
<stop offset="0.01" stop-color="#EBEAF0"/>
<stop offset="0.99" stop-color="#E5E4EC"/>
</linearGradient>
<linearGradient id="paint4_linear" x1="-308965" y1="10809.6" x2="-315651" y2="9652.18" gradientUnits="userSpaceOnUse">
<stop offset="0.01" stop-color="#EBEAF0"/>
<stop offset="0.99" stop-color="#E5E4EC"/>
</linearGradient>
<linearGradient id="paint5_linear" x1="-86731" y1="11242.7" x2="-87269.9" y2="11204" gradientUnits="userSpaceOnUse">
<stop offset="0.01" stop-color="#EBEAF0"/>
<stop offset="0.99" stop-color="#E5E4EC"/>
</linearGradient>
<linearGradient id="paint6_linear" x1="7354.84" y1="10668.6" x2="6760.22" y2="10625.9" gradientUnits="userSpaceOnUse">
<stop offset="0.01" stop-color="#EBEAF0"/>
<stop offset="0.99" stop-color="#E5E4EC"/>
</linearGradient>
<linearGradient id="paint7_linear" x1="8468.82" y1="11265.6" x2="7877.96" y2="11223.4" gradientUnits="userSpaceOnUse">
<stop offset="0.01" stop-color="#EBEAF0"/>
<stop offset="0.99" stop-color="#E5E4EC"/>
</linearGradient>
</defs>
</svg>
