<svg id="Layer_1" data-name="Layer 1" xmlns="http://www.w3.org/2000/svg" viewBox="0 0 512 512"><defs><style>.cls-1{fill:#141f38;}</style></defs><title>printer-glyph</title><path class="cls-1" d="M435.2,102.4H76.8V64a64,64,0,0,1,64-64H371.2a64,64,0,0,1,64,64ZM371.2,384H140.8a38.44,38.44,0,0,0-38.4,38.4v83.2a6.41,6.41,0,0,0,6.4,6.4H403.2a6.41,6.41,0,0,0,6.4-6.4V422.4A38.44,38.44,0,0,0,371.2,384ZM512,192V371.2a64,64,0,0,1-64,64H435.2V422.4a64,64,0,0,0-64-64H140.8a64,64,0,0,0-64,64v12.8H64a64,64,0,0,1-64-64V192a64,64,0,0,1,64-64H448A64,64,0,0,1,512,192ZM307.2,217.6a12.8,12.8,0,0,0-12.8-12.8H89.6a12.8,12.8,0,0,0,0,25.6H294.4A12.8,12.8,0,0,0,307.2,217.6Zm128,0A38.4,38.4,0,1,0,396.8,256,38.4,38.4,0,0,0,435.2,217.6Zm-38.4-12.8a12.8,12.8,0,1,0,12.8,12.8A12.81,12.81,0,0,0,396.8,204.8Z"/></svg>